<svg width="40" height="40" viewBox="0 0 40 40" fill="none" xmlns="http://www.w3.org/2000/svg">
<circle cx="20" cy="20" r="20" fill="#1769FF"/>
<path d="M14.9811 12C15.6726 12 16.3114 12.0527 16.8976 12.2107C17.4837 12.3161 17.9645 12.5335 18.3926 12.7969C18.8207 13.0603 19.1368 13.4357 19.3541 13.9165C19.5649 14.3973 19.6768 14.9834 19.6768 15.6223C19.6768 16.3665 19.5188 17.0053 19.1434 17.4861C18.8207 17.9668 18.2938 18.3949 17.6484 18.7111C18.5572 18.9745 19.2487 19.4553 19.6702 20.0941C20.0917 20.7329 20.3618 21.5298 20.3618 22.4387C20.3618 23.1829 20.2037 23.8217 19.9337 24.3552C19.6702 24.8886 19.2422 25.3694 18.7614 25.6855C18.2806 26.0083 17.6945 26.2717 17.0556 26.4297C16.4168 26.5878 15.778 26.6932 15.1391 26.6932L8 26.7064V12H14.9811ZM14.553 17.9668C15.1391 17.9668 15.6199 17.8088 15.9887 17.5388C16.3575 17.2687 16.5222 16.7945 16.5222 16.2084C16.5222 15.8857 16.4695 15.5696 16.3641 15.3588C16.2587 15.1481 16.1007 14.9834 15.8833 14.8254C15.6726 14.72 15.4553 14.6146 15.1918 14.5619C14.9284 14.5092 14.6584 14.5092 14.3422 14.5092H11.2534V17.9734C11.2534 17.9668 14.553 17.9668 14.553 17.9668ZM14.7111 24.2564C15.0338 24.2564 15.3499 24.2037 15.6199 24.151C15.8833 24.0983 16.1534 23.993 16.3641 23.8283C16.5749 23.6637 16.7395 23.5056 16.8976 23.2422C17.003 22.9787 17.1083 22.656 17.1083 22.2806C17.1083 21.5364 16.8976 21.003 16.4695 20.6276C16.0414 20.3048 15.4553 20.1468 14.7637 20.1468H11.2534V24.2498H14.7111V24.2564Z" fill="white"/>
<path d="M24.9983 24.2038C25.4264 24.6318 26.0652 24.8426 26.9148 24.8426C27.5009 24.8426 28.0344 24.6845 28.4625 24.4145C28.8906 24.0918 29.154 23.7757 29.2594 23.453H31.8674C31.4393 24.7306 30.8005 25.6395 29.9509 26.2256C29.1013 26.7591 28.0871 27.0752 26.8621 27.0752C26.0125 27.0752 25.2617 26.9172 24.5702 26.6471C23.8787 26.3837 23.3452 26.0083 22.8644 25.4748C22.3837 24.9941 22.0149 24.4079 21.7975 23.7164C21.5341 23.0249 21.4221 22.2807 21.4221 21.4245C21.4221 20.6276 21.5275 19.8768 21.7975 19.1853C22.0675 18.4938 22.4364 17.9076 22.9171 17.3742C23.3979 16.8934 23.984 16.4653 24.6229 16.2019C25.3144 15.9384 26.0059 15.7738 26.8621 15.7738C27.7709 15.7738 28.5678 15.9318 29.2594 16.3072C29.9509 16.6826 30.4843 17.1041 30.9124 17.743C31.3405 18.3291 31.6566 19.0206 31.874 19.7648C31.9793 20.5091 32.032 21.2599 31.9793 22.1094H24.2541C24.2541 22.9788 24.5702 23.7757 24.9983 24.2038ZM28.3571 18.6057C27.9817 18.2303 27.3955 18.0196 26.704 18.0196C26.2233 18.0196 25.8544 18.125 25.5317 18.283C25.209 18.4411 24.9983 18.6584 24.7875 18.8692C24.5768 19.0799 24.4648 19.3499 24.4121 19.6134C24.3594 19.8768 24.3068 20.0941 24.3068 20.3049H29.1013C28.9959 19.5146 28.7259 18.9811 28.3571 18.6057ZM23.6679 13.0143H29.6348V14.45H23.6679V13.0143Z" fill="white"/>
</svg>
