<svg width="40" height="40" viewBox="0 0 40 40" fill="none" xmlns="http://www.w3.org/2000/svg">
<circle cx="20" cy="20" r="20" fill="#FF2449"/>
<path d="M11.129 9.13352C10.0821 9.75505 8.01953 12.1245 8 12.746V13.7745C8 15.0783 9.21876 16.2243 10.3253 16.2243C11.6539 16.2243 12.761 15.1231 12.761 13.8162C12.761 15.1231 13.8301 16.2243 15.1589 16.2243C16.4877 16.2243 17.5225 15.1231 17.5225 13.8162C17.5225 15.1231 18.6592 16.2243 19.9879 16.2243H20.0121C21.3409 16.2243 22.4776 15.1231 22.4776 13.8162C22.4776 15.1231 23.5124 16.2243 24.8411 16.2243C26.1699 16.2243 27.239 15.1231 27.239 13.8162C27.239 15.1231 28.3462 16.2243 29.6747 16.2243C30.7812 16.2243 32 15.0785 32 13.7745V12.746C31.9805 12.1244 29.9179 9.75487 28.8713 9.13352C25.6175 9.01927 23.3618 8.99946 19.9999 9.00001C16.6381 9.00029 12.055 9.05283 11.1287 9.13352H11.129ZM17.5057 15.6102C17.3786 15.8317 17.2212 16.0343 17.0381 16.2122C16.5365 16.7026 15.849 17.0067 15.0911 17.0067C14.362 17.0074 13.6611 16.7218 13.1399 16.2119C12.9582 16.0339 12.8201 15.8435 12.6936 15.6219L12.6931 15.6223C12.5666 15.8443 12.3906 16.0345 12.2085 16.2127C11.6873 16.7223 10.9863 17.0076 10.2573 17.007C10.166 17.007 10.0709 16.9818 9.99406 16.9554C9.88723 18.0677 9.84221 19.1306 9.82626 19.9057L9.82607 19.9101C9.82405 20.3037 9.82213 20.6273 9.8202 21.077C9.84074 23.4107 9.58903 28.6411 10.8491 29.9262C12.8019 30.3815 16.395 30.5888 19.9998 30.5901H20.0004C23.6051 30.5888 27.1982 30.3815 29.1509 29.9262C30.4111 28.641 30.1594 23.4106 30.18 21.0769C30.1778 20.6273 30.176 20.3037 30.1741 19.91L30.1737 19.9056C30.158 19.1303 30.1129 18.0674 30.006 16.9551C29.9292 16.9815 29.8342 17.0068 29.7428 17.0068C29.0138 17.0074 28.3128 16.7221 27.7916 16.2125C27.6095 16.0343 27.4334 15.8442 27.307 15.6221L27.3064 15.6217C27.1798 15.8433 27.0418 16.0337 26.8601 16.2117C26.339 16.7215 25.6381 17.0071 24.909 17.0063C24.1512 17.0063 23.4636 16.7022 22.962 16.2119C22.7789 16.034 22.6215 15.8313 22.4945 15.6099C22.3688 15.8311 22.2129 16.0337 22.0312 16.2119C21.51 16.7217 20.809 17.0072 20.0799 17.0064C20.0535 17.0064 20.0271 17.0053 20.0007 17.0045H20C19.9736 17.0053 19.9472 17.0064 19.9205 17.0064C19.1914 17.0072 18.4903 16.7218 17.9691 16.212C17.7876 16.0338 17.6316 15.8311 17.506 15.61L17.5057 15.6102ZM15.5019 18.2013L15.5017 18.2022H15.5032C16.2967 18.2038 17.0016 18.2022 17.875 19.1555C18.5625 19.0834 19.2808 19.0474 19.9997 19.0485H20.0003C20.7192 19.0475 21.4375 19.0834 22.1251 19.1555C22.9985 18.2021 23.7034 18.2037 24.4969 18.2022H24.4983L24.4981 18.2013C24.8731 18.2013 26.3728 18.2013 27.4178 21.1362L28.5402 25.1626C29.372 28.158 28.2739 28.2313 26.9042 28.2338C24.8729 28.1583 23.7481 26.6831 23.7481 25.2081C22.6237 25.3924 21.312 25.4846 20.0002 25.4846H19.9996C18.6878 25.4846 17.376 25.3924 16.2517 25.2081C16.2517 26.6831 15.1269 28.1583 13.0957 28.2338C11.7259 28.2313 10.6279 28.1581 11.4597 25.1626L12.5824 21.1363C13.6274 18.2014 15.1271 18.2014 15.5021 18.2014L15.5019 18.2013ZM19.9997 20.5078V20.5084C19.9978 20.5103 17.8613 22.4725 17.4772 23.1703L18.8763 23.1143V24.3344C18.8763 24.3915 19.4377 24.3682 19.9997 24.3422H20.0003C20.5622 24.3682 21.1236 24.3915 21.1236 24.3344V23.1143L22.5227 23.1703C22.1385 22.4725 20.0002 20.5084 20.0002 20.5084V20.5078L19.9999 20.508L19.9997 20.5078Z" fill="white"/>
</svg>
