<svg width="28" height="32" viewBox="0 0 28 32" fill="none" xmlns="http://www.w3.org/2000/svg">
<path d="M11.104 13.424C10.192 13.424 9.472 14.224 9.472 15.2C9.472 16.176 10.208 16.976 11.104 16.976C12.016 16.976 12.736 16.176 12.736 15.2C12.752 14.224 12.016 13.424 11.104 13.424ZM16.944 13.424C16.032 13.424 15.312 14.224 15.312 15.2C15.312 16.176 16.048 16.976 16.944 16.976C17.856 16.976 18.576 16.176 18.576 15.2C18.576 14.224 17.856 13.424 16.944 13.424Z" fill="white"/>
<path d="M24.72 0H3.28C1.472 0 0 1.472 0 3.296V24.928C0 26.752 1.472 28.224 3.28 28.224H21.424L20.576 25.264L22.624 27.168L24.56 28.96L28 32V3.296C28 1.472 26.528 0 24.72 0ZM18.544 20.896C18.544 20.896 17.968 20.208 17.488 19.6C19.584 19.008 20.384 17.696 20.384 17.696C19.728 18.128 19.104 18.432 18.544 18.64C17.744 18.976 16.976 19.2 16.224 19.328C14.688 19.616 13.28 19.536 12.08 19.312C11.168 19.136 10.384 18.88 9.728 18.624C9.36 18.48 8.96 18.304 8.56 18.08C8.512 18.048 8.464 18.032 8.416 18C8.384 17.984 8.368 17.968 8.352 17.952C8.064 17.792 7.904 17.68 7.904 17.68C7.904 17.68 8.672 18.96 10.704 19.568C10.224 20.176 9.632 20.896 9.632 20.896C6.096 20.784 4.752 18.464 4.752 18.464C4.752 13.312 7.056 9.136 7.056 9.136C9.36 7.408 11.552 7.456 11.552 7.456L11.712 7.648C8.832 8.48 7.504 9.744 7.504 9.744C7.504 9.744 7.856 9.552 8.448 9.28C10.16 8.528 11.52 8.32 12.08 8.272C12.176 8.256 12.256 8.24 12.352 8.24C13.328 8.112 14.432 8.08 15.584 8.208C17.104 8.384 18.736 8.832 20.4 9.744C20.4 9.744 19.136 8.544 16.416 7.712L16.64 7.456C16.64 7.456 18.832 7.408 21.136 9.136C21.136 9.136 23.44 13.312 23.44 18.464C23.44 18.464 22.08 20.784 18.544 20.896Z" fill="white"/>
</svg>
