<?xml version="1.0" encoding="UTF-8" standalone="no"?>
<!DOCTYPE svg PUBLIC "-//W3C//DTD SVG 1.1//EN" "http://www.w3.org/Graphics/SVG/1.1/DTD/svg11.dtd">
<svg width="100%" height="100%" viewBox="0 0 57 32" version="1.1" xmlns="http://www.w3.org/2000/svg" xmlns:xlink="http://www.w3.org/1999/xlink" xml:space="preserve" xmlns:serif="http://www.serif.com/" style="fill-rule:evenodd;clip-rule:evenodd;stroke-linejoin:round;stroke-miterlimit:2;">
    <g transform="matrix(1,0,0,1,-316.304,-709.303)">
        <g transform="matrix(0.184551,0,0,0.184551,207.788,589.474)">
            <g transform="matrix(0.292549,0,0,0.292549,501.761,567.274)">
                <path d="M883.448,576.746C883.448,740.416 751.67,873.096 589.116,873.096C426.561,873.096 294.784,740.416 294.784,576.746C294.784,413.075 426.561,280.395 589.116,280.395C751.67,280.395 883.448,413.075 883.448,576.746Z" style="fill:white;fill-rule:nonzero;"/>
            </g>
            <g transform="matrix(0.292549,0,0,0.292549,501.761,567.274)">
                <path d="M1206.34,576.746C1206.34,730.813 1140.45,855.709 1059.17,855.709C977.894,855.709 912.005,730.813 912.005,576.746C912.005,422.678 977.894,297.782 1059.17,297.782C1140.45,297.782 1206.34,422.678 1206.34,576.746Z" style="fill:white;fill-rule:nonzero;"/>
            </g>
            <g transform="matrix(0.292549,0,0,0.292549,501.761,567.274)">
                <path d="M1338.41,576.746C1338.41,714.784 1315.24,826.685 1286.65,826.685C1258.07,826.685 1234.89,714.784 1234.89,576.746C1234.89,438.707 1258.07,326.806 1286.65,326.806C1315.24,326.806 1338.41,438.707 1338.41,576.746Z" style="fill:white;fill-rule:nonzero;"/>
            </g>
        </g>
    </g>
</svg>
