<svg width="105" height="32" viewBox="0 0 105 32" fill="none" xmlns="http://www.w3.org/2000/svg">
<path d="M36.9414 14.6759C36.9414 13.7931 37.0781 12.9931 37.3789 12.2759C37.6797 11.5586 38.0625 10.9241 38.5547 10.4276C39.0742 9.93103 39.6758 9.51723 40.3867 9.26896C41.0977 8.99309 41.8633 8.85516 42.7109 8.85516C43.5586 8.85516 44.3516 8.96551 45.0625 9.24137C45.7734 9.48965 46.375 9.87585 46.8945 10.4C47.4141 10.8965 47.7969 11.531 48.0977 12.2483C48.3984 12.9655 48.5352 13.7655 48.5352 14.6483C48.5352 15.5034 48.3984 16.3034 48.0977 16.9931C47.7969 17.7103 47.4141 18.3172 46.8945 18.8138C46.375 19.3103 45.7734 19.7241 45.0625 20.0276C44.3516 20.3034 43.5586 20.4414 42.7109 20.469C41.8633 20.469 41.0977 20.331 40.3867 20.0552C39.6758 19.7793 39.0742 19.3931 38.5547 18.8965C38.0625 18.4 37.6523 17.7655 37.3789 17.0759C37.0781 16.331 36.9414 15.531 36.9414 14.6759ZM38.9922 14.5379C38.9922 15.1172 39.0742 15.669 39.2656 16.1655C39.457 16.6621 39.7031 17.1034 40.0312 17.4621C40.3594 17.8207 40.7422 18.1241 41.207 18.3172C41.6719 18.5379 42.1914 18.6207 42.7383 18.6207C43.3125 18.6207 43.832 18.5103 44.2695 18.3172C44.7344 18.0965 45.1172 17.8207 45.4453 17.4621C45.7734 17.1034 46.0195 16.6621 46.2109 16.1655C46.4023 15.669 46.4844 15.1172 46.4844 14.5379C46.4844 13.9862 46.4023 13.4621 46.2109 12.9931C46.0469 12.5241 45.7734 12.1103 45.4453 11.7517C45.1172 11.3931 44.707 11.1172 44.2695 10.8965C43.8047 10.6759 43.2852 10.5931 42.7383 10.5931C42.1641 10.5931 41.6445 10.7034 41.207 10.8965C40.7422 11.0896 40.3594 11.3655 40.0312 11.7517C39.7031 12.1103 39.457 12.5241 39.2656 12.9931C39.0742 13.4896 38.9922 14.0138 38.9922 14.5379Z" fill="white"/>
<path d="M50.7773 12.6621H52.5273V13.7931H52.5547C52.8281 13.3241 53.1836 12.9931 53.6484 12.8C54.1133 12.5793 54.5781 12.4966 55.125 12.4966C55.6992 12.4966 56.1914 12.6069 56.6562 12.8C57.1211 12.9931 57.5039 13.269 57.8047 13.6276C58.1328 13.9862 58.3789 14.4 58.543 14.869C58.707 15.3379 58.7891 15.8621 58.7891 16.4138C58.7891 16.9655 58.707 17.4897 58.5156 17.9586C58.3516 18.4276 58.1055 18.8414 57.7773 19.2C57.4766 19.5586 57.0937 19.8345 56.6562 20.0552C56.2187 20.2483 55.7266 20.3586 55.207 20.3586C54.8516 20.3586 54.5508 20.331 54.2773 20.2483C54.0039 20.1655 53.7852 20.0828 53.5664 19.9724C53.3477 19.8621 53.1836 19.7517 53.0469 19.6138C52.9102 19.4759 52.7734 19.3379 52.6914 19.2276H52.6367V23.7241H50.7773V12.6621ZM56.9023 16.4138C56.9023 16.1103 56.8477 15.8345 56.7383 15.5586C56.6562 15.2828 56.4922 15.0621 56.3008 14.8414C56.1094 14.6207 55.8906 14.4552 55.6172 14.3448C55.3437 14.2069 55.043 14.1517 54.7148 14.1517C54.3867 14.1517 54.0586 14.2069 53.8125 14.3448C53.5391 14.4828 53.3203 14.6483 53.1289 14.8414C52.9375 15.0621 52.8008 15.2828 52.6914 15.5586C52.6094 15.8345 52.5547 16.1103 52.5547 16.4138C52.5547 16.7172 52.6094 16.9931 52.6914 17.269C52.8008 17.5448 52.9375 17.7655 53.1289 17.9862C53.3203 18.2069 53.5664 18.3724 53.8125 18.4828C54.0859 18.6207 54.3867 18.6759 54.7148 18.6759C55.043 18.6759 55.3711 18.6207 55.6172 18.4828C55.8906 18.3448 56.1094 18.1793 56.3008 17.9862C56.4922 17.7655 56.6289 17.5448 56.7383 17.269C56.875 16.9931 56.9023 16.6897 56.9023 16.4138Z" fill="white"/>
<path d="M62.5352 17.0759C62.5898 17.6276 62.8086 18.069 63.1914 18.3724C63.5742 18.6759 64.0117 18.8414 64.5313 18.8414C64.9961 18.8414 65.3789 18.7586 65.6797 18.5655C66.0078 18.3724 66.2813 18.1241 66.5 17.8207L67.8398 18.8414C67.4023 19.3931 66.9375 19.7793 66.3906 20C65.8438 20.2207 65.2969 20.331 64.6953 20.331C64.1484 20.331 63.6016 20.2483 63.1094 20.0552C62.6172 19.8621 62.1797 19.6138 61.8242 19.2552C61.4688 18.9241 61.168 18.5103 60.9492 18.0138C60.7305 17.5172 60.6484 16.9931 60.6484 16.3862C60.6484 15.8069 60.7578 15.2552 60.9492 14.7862C61.168 14.2897 61.4414 13.8759 61.8242 13.5448C62.1797 13.2138 62.6172 12.9379 63.1094 12.7448C63.6016 12.5517 64.1211 12.469 64.6953 12.469C65.2148 12.469 65.6797 12.5517 66.0898 12.7448C66.5273 12.9103 66.8828 13.1862 67.1836 13.5172C67.4844 13.8483 67.7305 14.2897 67.8945 14.7862C68.0586 15.2828 68.168 15.8621 68.168 16.5241V17.0483H62.5352V17.0759ZM66.3359 15.669C66.3359 15.1172 66.1445 14.6759 65.8164 14.3724C65.4883 14.0414 65.0234 13.8759 64.4492 13.8759C63.9023 13.8759 63.4375 14.0414 63.1094 14.3724C62.7813 14.7034 62.5898 15.1172 62.5352 15.669H66.3359Z" fill="white"/>
<path d="M70.4648 12.6621H72.2148V13.8759H72.2422C72.4063 13.4897 72.6797 13.1862 73.0352 12.9103C73.3906 12.6345 73.8828 12.4966 74.5117 12.4966C75.0039 12.4966 75.4141 12.5793 75.7695 12.7448C76.125 12.9103 76.3984 13.131 76.6172 13.4069C76.8359 13.6828 77 13.9862 77.082 14.3448C77.1641 14.7034 77.2188 15.0621 77.2188 15.4483V20.1379H75.3594V16.3586C75.3594 16.1379 75.3594 15.9172 75.332 15.669C75.3047 15.4207 75.25 15.1724 75.168 14.9517C75.0859 14.731 74.9492 14.5379 74.7578 14.4C74.5664 14.2345 74.3203 14.1793 73.9922 14.1793C73.6914 14.1793 73.418 14.2345 73.1992 14.3448C72.9805 14.4552 72.8164 14.5931 72.6797 14.7586C72.543 14.9241 72.4609 15.1448 72.3789 15.3655C72.3242 15.5862 72.2969 15.8345 72.2969 16.0828V20.1379H70.4375V12.6621H70.4648Z" fill="white"/>
<path d="M85.3945 11.4759C85.1758 11.1724 84.9023 10.9517 84.5742 10.8138C84.2461 10.6759 83.8633 10.5931 83.4805 10.5931C83.2617 10.5931 83.043 10.6207 82.8242 10.6759C82.6055 10.731 82.4414 10.8138 82.25 10.9241C82.0859 11.0345 81.9492 11.2 81.8398 11.3655C81.7305 11.531 81.6758 11.7517 81.6758 12C81.6758 12.3862 81.8125 12.6621 82.0586 12.8552C82.3047 13.0483 82.6328 13.2138 83.0156 13.3793C83.3984 13.5448 83.8086 13.6552 84.2734 13.7931C84.7383 13.931 85.1484 14.1241 85.5312 14.3448C85.9141 14.5931 86.2422 14.8965 86.4883 15.2827C86.7344 15.669 86.8711 16.1931 86.8711 16.8552C86.8711 17.4345 86.7617 17.9586 86.543 18.4276C86.3242 18.869 86.0234 19.2276 85.668 19.531C85.3125 19.8345 84.875 20.0276 84.4102 20.1931C83.918 20.331 83.4258 20.4138 82.8789 20.4138C82.1953 20.4138 81.5391 20.3034 80.9102 20.0827C80.2812 19.8621 79.7344 19.4759 79.2969 18.9241L80.7734 17.4896C81.0195 17.8483 81.3203 18.1517 81.7031 18.3448C82.0859 18.5379 82.4961 18.6483 82.9336 18.6483C83.1523 18.6483 83.3984 18.6207 83.6172 18.5655C83.8359 18.5103 84.0547 18.4 84.2461 18.2896C84.4375 18.1517 84.5742 18.0138 84.6836 17.8207C84.793 17.6276 84.8477 17.4069 84.8477 17.1586C84.8477 16.7448 84.7109 16.4414 84.4648 16.2207C84.2187 16 83.8906 15.8069 83.5078 15.669C83.125 15.5034 82.7148 15.3655 82.25 15.2276C81.7852 15.0896 81.375 14.9241 80.9922 14.6759C80.6094 14.4276 80.2813 14.1241 80.0352 13.7379C79.7891 13.3517 79.6523 12.8276 79.6523 12.1655C79.6523 11.5862 79.7617 11.0896 79.9805 10.6759C80.2266 10.2621 80.5273 9.90344 80.8828 9.65516C81.2656 9.3793 81.7031 9.15861 82.168 9.02068C82.6602 8.88275 83.1523 8.82758 83.6445 8.82758C84.2187 8.82758 84.7656 8.91033 85.3125 9.10344C85.8594 9.26895 86.3516 9.5724 86.7891 9.9862L85.3945 11.4759Z" fill="white"/>
<path d="M90.7812 17.0759C90.8359 17.6276 91.0547 18.069 91.4375 18.3724C91.8203 18.6759 92.2578 18.8414 92.7773 18.8414C93.2422 18.8414 93.625 18.7586 93.9258 18.5655C94.2539 18.3724 94.5273 18.1241 94.7461 17.8207L96.0859 18.8414C95.6484 19.3931 95.1562 19.7793 94.6367 20C94.0898 20.2207 93.543 20.331 92.9414 20.331C92.3945 20.331 91.875 20.2483 91.3555 20.0552C90.8633 19.8621 90.4258 19.6138 90.0703 19.2552C89.7148 18.9241 89.4141 18.5103 89.1953 18.0138C88.9766 17.5172 88.8945 16.9931 88.8945 16.3862C88.8945 15.8069 89.0039 15.2552 89.1953 14.7862C89.4141 14.2897 89.6875 13.8759 90.0703 13.5448C90.4258 13.2138 90.8633 12.9379 91.3555 12.7448C91.8477 12.5517 92.3672 12.469 92.9414 12.469C93.4609 12.469 93.9258 12.5517 94.3359 12.7448C94.7734 12.9103 95.1289 13.1862 95.4297 13.5172C95.7305 13.8483 95.9766 14.2897 96.1406 14.7862C96.3047 15.2828 96.4141 15.8621 96.4141 16.5241V17.0483H90.7812V17.0759ZM94.5547 15.669C94.5547 15.1172 94.3633 14.6759 94.0352 14.3724C93.707 14.0414 93.2422 13.8759 92.668 13.8759C92.1211 13.8759 91.6562 14.0414 91.3281 14.3724C91 14.7034 90.8086 15.1172 90.7539 15.669H94.5547Z" fill="white"/>
<path d="M103.332 19.1172H103.277C103.004 19.531 102.676 19.8621 102.266 20.0552C101.855 20.2483 101.391 20.331 100.898 20.331C100.57 20.331 100.215 20.2759 99.8867 20.1931C99.5586 20.1103 99.2852 19.9724 99.0117 19.7793C98.7656 19.5862 98.5742 19.3655 98.4102 19.0897C98.2461 18.8138 98.1914 18.4828 98.1914 18.0965C98.1914 17.6828 98.2734 17.3517 98.4102 17.0759C98.5469 16.7724 98.7383 16.5517 98.9844 16.3586C99.2305 16.1655 99.5039 16 99.832 15.8897C100.16 15.7793 100.488 15.6966 100.816 15.6414C101.172 15.5862 101.527 15.531 101.855 15.531C102.211 15.5034 102.539 15.5034 102.84 15.5034H103.305V15.3103C103.305 14.8414 103.141 14.4828 102.813 14.2621C102.484 14.0138 102.074 13.9034 101.582 13.9034C101.199 13.9034 100.816 13.9862 100.488 14.1241C100.16 14.2621 99.8594 14.4552 99.6133 14.6759L98.6289 13.6828C99.0391 13.269 99.5312 12.9379 100.051 12.7724C100.598 12.5793 101.172 12.4966 101.773 12.4966C102.293 12.4966 102.73 12.5517 103.113 12.6897C103.469 12.8 103.77 12.9655 104.016 13.131C104.262 13.3241 104.426 13.5448 104.562 13.7931C104.699 14.0414 104.781 14.2897 104.836 14.5379C104.891 14.7862 104.945 15.0345 104.945 15.2828C104.945 15.5034 104.973 15.7241 104.973 15.8897V20.1379H103.305V19.1172H103.332ZM103.223 16.8H102.84C102.594 16.8 102.293 16.8 101.965 16.8276C101.637 16.8552 101.336 16.9103 101.063 16.9931C100.789 17.0759 100.543 17.1862 100.352 17.3241C100.16 17.4621 100.051 17.6828 100.051 17.9586C100.051 18.1241 100.078 18.2897 100.16 18.4C100.242 18.5103 100.352 18.6207 100.461 18.7034C100.598 18.7862 100.734 18.8414 100.871 18.8965C101.035 18.9241 101.172 18.9517 101.336 18.9517C101.965 18.9517 102.43 18.8138 102.73 18.5103C103.031 18.2069 103.195 17.7655 103.195 17.2414V16.8H103.223Z" fill="white"/>
<path d="M15.8594 0C7.10938 0 0 7.17241 0 16C0 24.8276 7.10938 32 15.8594 32C24.6094 32 31.7188 24.8276 31.7188 16C31.7188 7.17241 24.6094 0 15.8594 0ZM15.8047 27.6414C9.48828 27.6414 4.375 22.4828 4.375 16.0828C4.375 9.71034 9.48828 4.52414 15.8047 4.52414C22.1211 4.52414 27.2344 9.71034 27.2344 16.0828C27.207 22.4828 22.0938 27.6414 15.8047 27.6414Z" fill="white"/>
<path d="M16.7617 9.65517C16.7617 9.95862 16.5977 10.2069 16.3789 10.3448V11.0621H16.4062L17.5273 11.2C17.7188 11.3103 19.6602 13.0207 19.6602 15.5586C19.6602 18.0138 18.8945 18.5103 18.5664 18.731C18.5117 18.7586 18.4844 18.7862 18.457 18.8138C18.4297 18.8414 18.375 18.8414 18.3477 18.8138L18.3203 18.7586C18.1289 18.5655 17.6914 18.1517 16.7891 18.0138C16.6523 17.9862 16.543 17.9862 16.4062 17.9586H16.3789V19.7517H18.5117C19.0312 19.7517 19.4414 19.3931 19.5508 18.8965C19.5508 18.869 19.6055 18.8414 19.6328 18.8414C20.6719 18.8414 21.7109 18.5931 22.6406 18.1517L22.832 18.069C22.8867 18.0414 22.9687 18.0414 23.0234 18.0965C23.0781 18.1241 23.1055 18.2069 23.1055 18.2621C23.1055 18.3448 23.0508 18.4 22.9961 18.4552C22.1484 18.869 21.6016 19.7241 21.3008 20.6345C21.1641 21.0483 20.9727 21.4345 20.7539 21.7931C20.6172 22.0414 20.3438 22.1793 20.0977 22.069L19.7148 21.9034C19.4141 21.7655 19.1133 21.7655 18.8125 21.9034L18.4297 22.069C18.1289 22.2069 17.8281 22.2069 17.5273 22.069L17.1445 21.9034C16.8438 21.7655 16.543 21.7655 16.2422 21.9034L15.8594 22.0414C15.5586 22.1793 15.2578 22.1793 14.957 22.0414L14.5742 21.8759C14.2734 21.7379 13.9727 21.7379 13.6719 21.8759L13.2891 22.0414C12.9883 22.1793 12.6875 22.1793 12.3867 22.0414L12.0039 21.8759C11.7031 21.7379 11.4023 21.7379 11.1016 21.8759L10.7461 22.0414C10.582 22.1241 10.3906 22.0414 10.2812 21.8759C9.65234 20.9103 9.29688 19.7517 9.29688 18.5103C9.29688 18.4276 9.29688 18.3448 9.29688 18.2621C9.29688 18.2069 9.35156 18.1793 9.37891 18.1793H12.6875C12.7422 18.1793 12.7695 18.2069 12.7695 18.2621V18.6759C12.7695 19.2828 13.2617 19.7517 13.8359 19.7517H15.6133V17.9586C15.2031 17.9862 14.875 18.0138 14.6836 18.069C14.6562 18.069 14.6289 18.069 14.6016 18.0414C14.5742 18.0138 14.5742 17.9862 14.6016 17.9586C14.7656 17.6276 15.0391 16.7448 14.9844 14.7862C14.9297 12.6897 14.1914 11.3379 13.918 10.8965C13.8633 10.8414 13.918 10.7586 14 10.7586L15.6133 10.9793V10.3724C15.3945 10.2345 15.2305 9.9862 15.2305 9.68275C15.2305 9.24137 15.5859 8.91034 15.9961 8.91034C16.4062 8.91034 16.7617 9.24137 16.7617 9.65517ZM14.0547 17.3793V13.9586C14.0547 13.931 14.0273 13.9034 14 13.8759L12.4687 13.1586C12.4141 13.131 12.3594 13.1586 12.3594 13.2138L10.7734 17.3241C10.7461 17.3793 10.8008 17.4345 10.8555 17.4345H13.9727C14.0273 17.4621 14.0547 17.4345 14.0547 17.3793Z" fill="white"/>
</svg>
