<svg width="40" height="32" viewBox="0 0 40 32" fill="none" xmlns="http://www.w3.org/2000/svg">
<path d="M39.3846 3.69231C37.9077 4.43077 36.4308 4.67692 34.7077 4.92308C36.4308 3.93846 37.6615 2.46154 38.1538 0.492307C36.6769 1.47692 34.9538 1.96923 32.9846 2.46154C31.5077 0.984615 29.2923 0 27.0769 0C21.9077 0 17.9692 4.92308 19.2 9.84615C12.5538 9.6 6.64615 6.4 2.46154 1.47692C0.246154 5.16923 1.47692 9.84615 4.92308 12.3077C3.69231 12.3077 2.46154 11.8154 1.23077 11.3231C1.23077 15.0154 3.93846 18.4615 7.63077 19.4462C6.4 19.6923 5.16923 19.9385 3.93846 19.6923C4.92308 22.8923 7.87692 25.3538 11.5692 25.3538C8.61538 27.5692 4.18462 28.8 0 28.3077C3.69231 30.5231 7.87692 32 12.3077 32C27.3231 32 35.6923 19.4462 35.2 7.87692C36.9231 6.89231 38.4 5.41538 39.3846 3.69231Z" fill="white"/>
</svg>
