<?xml version="1.0" encoding="UTF-8" standalone="no"?>
<!DOCTYPE svg PUBLIC "-//W3C//DTD SVG 1.1//EN" "http://www.w3.org/Graphics/SVG/1.1/DTD/svg11.dtd">
<svg width="100%" height="100%" viewBox="0 0 79 79" version="1.1" xmlns="http://www.w3.org/2000/svg" xmlns:xlink="http://www.w3.org/1999/xlink" xml:space="preserve" xmlns:serif="http://www.serif.com/" style="fill-rule:evenodd;clip-rule:evenodd;stroke-linejoin:round;stroke-miterlimit:2;">
    <g transform="matrix(1,0,0,1,-192,-224)">
        <g id="ico-play" transform="matrix(1.14493,0,0,1.14493,-17.5217,-197.333)">
            <path id="contour" d="M198.53,371.53C196.449,372.472 195,374.567 195,377L195,398C192.567,398 190.472,399.448 189.53,401.53C188.202,402.131 187.131,403.202 186.53,404.53C184.448,405.472 183,407.567 183,410L183,425C183,427.433 184.448,429.528 186.53,430.47C187.131,431.798 188.202,432.869 189.53,433.47C190.472,435.552 192.567,437 195,437L210,437C212.433,437 214.528,435.552 215.47,433.47C216.634,432.943 217.6,432.056 218.225,430.95C218.479,430.983 218.737,431 219,431L222,431C224.434,431 226.529,429.551 227.47,427.469C228.617,426.951 229.571,426.083 230.197,425L234,425C237.314,425 240,422.314 240,419C240,419 240,410 240,410C240,408.907 239.708,407.883 239.197,407L243,407C245.433,407 247.528,405.552 248.47,403.47C250.552,402.528 252,400.433 252,398L252,377C252,374.567 250.552,372.472 248.47,371.53C247.528,369.448 245.433,368 243,368L204,368C201.567,368 199.472,369.449 198.53,371.53Z" style="fill:rgb(23,21,22);"/>
            <g id="shapes" transform="matrix(1,0,0,1,-118,0)">
                <rect x="313" y="404" width="12" height="3" style="fill:rgb(144,82,188);"/>
                <rect x="310" y="407" width="3" height="3" style="fill:rgb(144,82,188);"/>
                <rect x="307" y="410" width="3" height="15" style="fill:rgb(144,82,188);"/>
                <rect x="310" y="425" width="3" height="3" style="fill:rgb(144,82,188);"/>
                <rect x="313" y="428" width="15" height="3" style="fill:rgb(144,82,188);"/>
                <rect x="328" y="425" width="3" height="3" style="fill:rgb(144,82,188);"/>
                <rect x="331" y="416" width="3" height="9" style="fill:rgb(144,82,188);"/>
                <rect x="328" y="410" width="3" height="6" style="fill:rgb(144,82,188);"/>
                <rect x="325" y="407" width="3" height="3" style="fill:rgb(144,82,188);"/>
                <rect x="319" y="410" width="3" height="3" style="fill:rgb(144,82,188);"/>
                <rect x="313" y="413" width="3" height="3" style="fill:rgb(144,82,188);"/>
                <path d="M322,419L316,419L316,425L325,425L325,422L328,422L328,416L322,416L322,419Z" style="fill:rgb(144,82,188);"/>
                <rect x="337" y="422" width="3" height="3" style="fill:rgb(144,82,188);"/>
                <rect x="340" y="419" width="3" height="3" style="fill:rgb(144,82,188);"/>
                <path d="M343,419L352,419L352,416L349,416L349,413L346,413L346,410L343,410L343,419Z" style="fill:rgb(144,82,188);"/>
                <rect x="349" y="410" width="3" height="3" style="fill:rgb(144,82,188);"/>
                <path d="M334,404L334,401L331,401L331,410L334,410L334,407L337,407L337,404L334,404Z" style="fill:rgb(144,82,188);"/>
                <rect x="337" y="401" width="3" height="3" style="fill:rgb(144,82,188);"/>
                <rect x="340" y="398" width="21" height="3" style="fill:rgb(144,82,188);"/>
                <rect x="322" y="398" width="9" height="3" style="fill:rgb(144,82,188);"/>
                <rect x="319" y="377" width="3" height="21" style="fill:rgb(144,82,188);"/>
                <rect x="322" y="374" width="39" height="3" style="fill:rgb(144,82,188);"/>
                <rect x="361" y="377" width="3" height="21" style="fill:rgb(144,82,188);"/>
                <rect x="325" y="380" width="12" height="3" style="fill:rgb(144,82,188);"/>
                <rect x="343" y="380" width="12" height="3" style="fill:rgb(144,82,188);"/>
                <rect x="352" y="386" width="6" height="3" style="fill:rgb(144,82,188);"/>
                <rect x="334" y="386" width="12" height="3" style="fill:rgb(144,82,188);"/>
                <rect x="325" y="386" width="6" height="3" style="fill:rgb(144,82,188);"/>
                <rect x="325" y="392" width="15" height="3" style="fill:rgb(144,82,188);"/>
                <rect x="343" y="392" width="12" height="3" style="fill:rgb(144,82,188);"/>
            </g>
        </g>
    </g>
</svg>
