<svg width="76" height="76" viewBox="0 0 76 76" fill="none" xmlns="http://www.w3.org/2000/svg">
<path d="M38.0067 0C17.1738 0 0.0287616 17.1372 0.012783 37.9691C-0.0692405 43.1296 0.977891 48.2571 3.06683 52.9777C3.06683 52.9766 0.75206 59.3101 0.75206 59.3101C0.750995 59.3123 0.750994 59.3155 0.749928 59.3176C0.253527 60.6802 0 62.1184 0 63.5683C0 70.3866 5.61062 75.9978 12.4282 75.9978C13.8779 75.9978 15.316 75.7442 16.6785 75.2478L23.0166 72.9317C27.7388 75.0262 32.8701 76.0766 38.0568 75.9957C58.8769 75.968 76.0006 58.8265 76.0006 37.9978C76.0006 17.1532 58.8492 0 38.0067 0Z" fill="#171516"/>
<path d="M37.9998 6.00241C20.448 6.00241 6.00596 20.4459 6.00596 37.9996C5.91744 43.1096 7.14814 48.1576 9.57861 52.6543L6.37922 61.4109C6.12434 62.1127 5.99316 62.8529 5.99316 63.5995C5.99316 67.1096 8.88221 69.9989 12.3919 69.9989C13.1385 69.9989 13.8786 69.8677 14.5803 69.6128L23.336 66.4131C27.8343 68.8492 32.8851 70.0832 37.9998 69.9968C55.5517 69.9968 69.9937 55.5533 69.9937 37.9996C69.9937 20.4459 55.5517 6.00241 37.9998 6.00241ZM37.9998 63.5973C33.0355 63.7467 28.1585 62.246 24.1358 59.3311L12.4047 63.5973L16.6706 51.865C13.7559 47.8419 12.2554 42.9645 12.4047 37.9996C12.4047 23.9571 23.9588 12.4018 37.9998 12.4018C52.0409 12.4018 63.5949 23.9571 63.5949 37.9996C63.5949 52.0421 52.0409 63.5973 37.9998 63.5973Z" fill="#9052BC"/>
<path d="M37.4978 31.8015C35.0978 31.8015 33.1978 33.7017 33.1978 36.102V54.704C33.1978 57.1043 35.0978 59.0045 37.4978 59.0045C39.8978 59.0045 41.7978 57.1043 41.7978 54.704V36.102C41.7978 33.7017 39.8978 31.8015 37.4978 31.8015Z" fill="#9052BC"/>
<path d="M37.4974 28.0011C40.2588 28.0011 42.4974 25.7623 42.4974 23.0005C42.4974 20.2388 40.2588 18 37.4974 18C34.7359 18 32.4974 20.2388 32.4974 23.0005C32.4974 25.7623 34.7359 28.0011 37.4974 28.0011Z" fill="#9052BC"/>
</svg>
