<svg width="92" height="76" viewBox="0 0 92 76" fill="none" xmlns="http://www.w3.org/2000/svg">
<path d="M22.4595 71.9193C24.7108 74.4566 27.9861 76 31.5119 76C35.0403 76 38.3183 74.4552 40.5695 71.9127C40.5695 71.914 65.1577 71.914 65.1577 71.914C67.0109 73.6578 69.4967 74.6938 72.15 74.6938C77.7411 74.6938 82.3425 70.0925 82.3425 64.5013C82.3425 62.9803 82.0024 61.5173 81.3842 60.1966H84.3657C87.0373 60.215 89.5482 58.7204 90.8241 56.3228C90.857 56.2635 90.8874 56.2029 90.9177 56.141C92.067 53.7935 91.8719 51.0006 90.4063 48.835L90.3443 48.7441L90.4063 48.6531C91.8719 46.4876 92.067 43.6946 90.9177 41.3472C90.8874 41.2852 90.857 41.2246 90.8241 41.1653C89.5482 38.7678 87.0373 37.2731 84.3222 37.2929H80.5776C82.8894 34.0004 84.2523 30.0027 84.2523 25.7112C84.2523 14.5882 75.0985 5.43431 63.9754 5.43431H60.3587C58.1853 2.15237 54.4565 0.00263606 50.3007 0.00263606C46.1449 0.00263606 42.4161 2.15237 40.2427 5.43563C40.2427 5.43431 22.1327 5.43431 22.1327 5.43431C19.9566 2.14974 16.2239 0 12.0654 0C5.44618 0 0 5.44618 0 12.0641C0 18.682 5.44618 24.1295 12.0654 24.1295C15.5886 24.1295 18.86 22.5861 21.1059 20.0475C21.1059 20.0488 41.2417 20.0488 41.2417 20.0488C43.4916 22.594 46.7696 24.1427 50.3007 24.1427C53.8317 24.1427 57.1097 22.594 59.3596 20.0475C59.3596 20.0488 63.9623 20.0488 63.9623 20.0488C67.0689 20.0488 69.6246 22.6045 69.6246 25.7112C69.6246 28.8178 67.0689 31.3735 63.9623 31.3735H50.8688C48.6953 28.0916 44.9665 25.9418 40.8107 25.9418C36.6549 25.9418 32.9262 28.0916 30.7527 31.3748C30.7527 31.3735 23.079 31.3735 23.079 31.3735C22.909 31.3696 22.7363 31.3669 22.5637 31.3669C11.4407 31.3669 2.28681 40.5208 2.28681 51.6438C2.28681 62.7325 11.384 71.8626 22.4595 71.9193ZM31.645 63.8766C31.6305 63.8581 31.6094 63.845 31.5844 63.845C31.5462 63.845 31.5145 63.874 31.5106 63.9122L31.4974 64.0216L31.5119 64.0229C31.5607 64.0229 31.6042 63.9913 31.62 63.9464L31.645 63.8766ZM64.8401 45.9683C64.5554 45.9814 64.2654 45.988 63.9754 45.988C63.9754 45.988 49.7906 45.988 49.7906 45.9867C47.5407 48.5332 44.2627 50.0819 40.7317 50.0819C37.2006 50.0819 33.9226 48.5332 31.6727 45.988L22.963 45.9867C21.4802 45.9788 20.0541 46.568 19.0076 47.6198C19.0036 47.625 18.9997 47.629 18.9944 47.633C17.9334 48.6953 17.3363 50.1359 17.3363 51.6372C17.3363 54.2759 19.1802 56.5166 21.6397 57.1321C23.8277 53.9451 27.4998 51.8678 31.5844 51.8678C35.7402 51.8678 39.469 54.0176 41.6424 57.2995H64.8401V45.9683ZM40.8621 37.94C40.8476 37.9268 40.8305 37.9189 40.8107 37.9189C40.7725 37.9189 40.7409 37.9479 40.7369 37.9862L40.7224 38.1035L40.7317 38.1048C40.7752 38.1048 40.8134 38.0771 40.8266 38.0362L40.8621 37.94ZM50.3837 12.1221L50.3745 12.047C50.3705 12.0087 50.3389 11.9797 50.3007 11.9797C50.2625 11.9797 50.2308 12.0087 50.2269 12.047L50.2177 12.1221C50.2361 12.1485 50.2677 12.1656 50.3007 12.1656C50.3336 12.1656 50.3653 12.1485 50.3837 12.1221ZM12.155 12.0746L12.1524 12.0549C12.1471 12.0101 12.1102 11.9771 12.0654 11.9771C12.0166 11.9771 11.9771 12.0166 11.9771 12.0641C11.9771 12.1129 12.0166 12.1524 12.0654 12.1524C12.1023 12.1524 12.1353 12.1287 12.1485 12.0931L12.155 12.0746Z" fill="#171516"/>
<path d="M83.0608 48.7244L85.4465 45.2975C85.7114 44.9073 85.7457 44.4025 85.5387 43.9794C85.3081 43.5471 84.856 43.2769 84.3657 43.2809H73.4654V42.9909C73.4654 42.2673 72.871 41.6729 72.1474 41.6729C71.4238 41.6729 70.8293 42.2673 70.8293 42.9909V60.5078C69.5297 60.9375 68.5188 61.9774 68.1273 63.2888H37.6145C37.2929 60.2165 34.6726 57.8572 31.5844 57.8572C28.4962 57.8572 25.8759 60.2165 25.5543 63.2888H22.9973C16.6061 63.2875 11.3484 58.0285 11.3484 51.6373C11.3484 48.5491 12.5755 45.5835 14.7595 43.3995C16.9369 41.2076 19.9078 39.9818 22.9973 39.9989H34.9784C35.8259 42.4439 38.1443 44.0928 40.7317 44.0928C43.319 44.0928 45.6374 42.4439 46.485 39.9989H63.9755C71.8139 39.9989 78.2631 33.5497 78.2631 25.7113C78.2631 17.8728 71.8139 11.4236 63.9755 11.4236H56.3308C56.0092 8.35127 53.3889 5.99196 50.3007 5.99196C47.2125 5.99196 44.5922 8.35127 44.2706 11.4236H18.1074C17.7818 8.34863 15.1576 5.98801 12.0654 5.98801C8.73209 5.98801 5.98923 8.73087 5.98923 12.0642C5.98923 15.3976 8.73209 18.1404 12.0654 18.1404C14.6449 18.1404 16.9567 16.4968 17.8042 14.0597H44.5474C45.3949 16.5047 47.7134 18.1536 50.3007 18.1536C52.888 18.1536 55.2065 16.5047 56.054 14.0597H63.9623C70.3535 14.0597 75.6138 19.3201 75.6138 25.7113C75.6138 32.1025 70.3535 37.3628 63.9623 37.3628H46.8408C46.5192 34.2905 43.8989 31.9312 40.8108 31.9312C37.7226 31.9312 35.1023 34.2905 34.7807 37.3628H22.9973C22.8523 37.3589 22.7087 37.3562 22.5637 37.3562C14.7253 37.3562 8.27604 43.8055 8.27604 51.6439C8.27604 59.4823 14.7253 65.9315 22.5637 65.9315C22.7087 65.9315 22.8523 65.9289 22.9973 65.9249H25.752C26.6061 68.366 28.9246 70.0109 31.5119 70.0109C34.0993 70.0109 36.4177 68.366 37.2718 65.9249H68.1932C68.7916 67.5896 70.3799 68.706 72.15 68.706C74.4553 68.706 76.3546 66.808 76.3546 64.5015C76.3546 62.6905 75.1841 61.0745 73.4654 60.5078V54.2075H84.3657C84.856 54.2114 85.3081 53.9413 85.5387 53.5089C85.7457 53.0858 85.7114 52.581 85.4465 52.1909L83.0608 48.7244ZM12.0707 15.5096C10.1819 15.5017 8.6306 13.9464 8.6306 12.0563C8.6306 10.1623 10.1898 8.60302 12.0839 8.60302C13.9687 8.60302 15.5227 10.1451 15.5372 12.0299C15.5372 12.0392 15.5372 12.0471 15.5372 12.0563C15.5372 13.9503 13.9779 15.5096 12.0839 15.5096C12.0799 15.5096 12.0747 15.5096 12.0707 15.5096ZM53.721 12.5572C53.464 14.2429 51.9997 15.5017 50.2941 15.5017C48.5886 15.5017 47.1242 14.2429 46.8672 12.5572C46.8395 12.3832 46.8303 12.2066 46.8408 12.0299C46.9529 10.2124 48.4792 8.777 50.3007 8.777C52.1222 8.777 53.6485 10.2124 53.7606 12.0299C53.7672 12.2066 53.754 12.3832 53.721 12.5572ZM40.7383 34.529C42.6402 34.529 44.2047 36.0936 44.2047 37.9955C44.2232 38.1616 44.2232 38.3303 44.2047 38.4964C43.9477 40.1821 42.4834 41.4409 40.7778 41.4409C39.0722 41.4409 37.6079 40.1821 37.3509 38.4964C37.3377 38.3474 37.3377 38.1972 37.3509 38.0482C37.3219 36.1568 38.8469 34.5725 40.7383 34.529ZM34.9784 64.4224C34.7649 66.1437 33.286 67.4499 31.5515 67.4499C29.8169 67.4499 28.3381 66.1437 28.1245 64.4224C28.1114 64.2774 28.1114 64.1324 28.1245 63.9874C28.1206 63.9162 28.1179 63.8451 28.1179 63.7739C28.1179 61.8719 29.6825 60.3074 31.5844 60.3074C33.4864 60.3074 35.0509 61.8719 35.0509 63.7739C35.0509 63.8451 35.0482 63.9162 35.0443 63.9874C35.0364 64.1337 35.014 64.28 34.9784 64.4224ZM72.1474 66.0699C72.0999 66.0739 72.0511 66.0765 72.0037 66.0765C71.1351 66.0765 70.422 65.3621 70.422 64.4949C70.422 63.6276 71.1351 62.9132 72.0037 62.9132C72.0511 62.9132 72.0999 62.9158 72.1474 62.9198C72.958 62.9936 73.5854 63.6816 73.5854 64.4949C73.5854 65.3081 72.958 65.9961 72.1474 66.0699ZM80.3852 49.4757L81.8482 51.5714H73.4654V45.8642H81.8482L80.3852 47.9731C80.0728 48.4239 80.0728 49.0249 80.3852 49.4757Z" fill="#9052BC"/>
</svg>
