<?xml version="1.0" encoding="UTF-8" standalone="no"?>
<!DOCTYPE svg PUBLIC "-//W3C//DTD SVG 1.1//EN" "http://www.w3.org/Graphics/SVG/1.1/DTD/svg11.dtd">
<svg width="100%" height="100%" viewBox="0 0 77 76" version="1.1" xmlns="http://www.w3.org/2000/svg" xmlns:xlink="http://www.w3.org/1999/xlink" xml:space="preserve" xmlns:serif="http://www.serif.com/" style="fill-rule:evenodd;clip-rule:evenodd;stroke-linejoin:round;stroke-miterlimit:2;">
    <g transform="matrix(1,0,0,1,-1004.5,-94.0872)">
        <g transform="matrix(0.75,0,0,0.948148,240,0)">
            <g id="ico-tickets">
                <g transform="matrix(0.914239,0,0,0.723178,1024.29,-585.575)">
                    <path d="M-2.857,1008.9C-6.274,1012.32 -6.274,1017.86 -2.857,1021.28L7.75,1031.88C9.391,1033.53 11.617,1034.45 13.937,1034.45C16.258,1034.45 18.484,1033.53 20.125,1031.88L21.539,1030.47C21.637,1030.37 21.794,1030.37 21.892,1030.47C21.99,1030.57 21.99,1030.72 21.892,1030.82C21.892,1030.82 20.478,1032.24 20.478,1032.24C18.837,1033.88 17.915,1036.1 17.915,1038.42C17.915,1040.75 18.837,1042.97 20.478,1044.61L31.085,1055.22C34.502,1058.64 40.042,1058.64 43.46,1055.22L102.857,995.822C106.274,992.404 106.274,986.864 102.857,983.447L92.25,972.84C90.609,971.199 88.383,970.277 86.063,970.277C83.742,970.277 81.516,971.199 79.875,972.84L78.461,974.254C78.363,974.352 78.206,974.352 78.108,974.254C78.108,974.254 78.108,974.254 78.108,974.254C78.01,974.156 78.01,973.999 78.108,973.902L79.522,972.487C82.939,969.07 82.939,963.53 79.522,960.112L68.915,949.505C65.498,946.088 59.958,946.088 56.54,949.506L-1.442,1007.49L-2.857,1008.9Z" style="fill:rgb(23,21,22);fill-rule:nonzero;"/>
                </g>
                <g transform="matrix(0.914239,0,0,0.723178,1024.29,-585.575)">
                    <path d="M3.331,1015.09L4.745,1016.5L12.523,1024.28L13.937,1025.7L15.352,1024.28C18.883,1020.75 24.548,1020.75 28.08,1024.28C31.611,1027.81 31.611,1033.48 28.08,1037.01L26.665,1038.42L28.08,1039.84L37.272,1049.03L38.686,1047.62L95.255,991.048L96.669,989.634L95.255,988.22L87.477,980.442L86.063,979.028L84.648,980.442C81.117,983.973 75.452,983.973 71.92,980.442C68.389,976.911 68.389,971.245 71.92,967.714L73.335,966.3L71.92,964.886L64.142,957.107L62.728,955.693L61.314,957.107L4.745,1013.68L3.331,1015.09ZM8.988,1015.09L45.05,979.028L49.293,983.27L52.121,980.442L47.879,976.199L62.728,961.35L67.81,966.432C64.104,971.51 64.514,978.692 69.092,983.27C73.67,987.848 80.83,988.236 85.908,984.53L91.012,989.634L76.163,1004.48L71.92,1000.24L69.092,1003.07L73.334,1007.31L37.272,1043.37L32.168,1038.27C35.873,1033.19 35.486,1026.03 30.908,1021.45C26.33,1016.88 19.148,1016.47 14.07,1020.17L8.988,1015.09ZM35.151,997.412L39.084,1006.65L32.278,1014.34L42.376,1013.26L47.415,1021.92L49.735,1012L59.656,1009.68L50.994,1004.64L52.077,994.54L44.387,1001.35L35.151,997.412ZM52.121,986.099L57.778,991.756L60.607,988.927L54.95,983.27L52.121,986.099ZM60.607,994.584L66.263,1000.24L69.092,997.412L63.435,991.756L60.607,994.584Z" style="fill:rgb(144,82,188);fill-rule:nonzero;stroke:rgb(144,82,188);stroke-width:1.46px;"/>
                </g>
            </g>
        </g>
    </g>
</svg>
