<svg width="68" height="76" viewBox="0 0 68 76" fill="none" xmlns="http://www.w3.org/2000/svg">
<path d="M11.0261 69.8766C11.6351 73.2182 14.5615 76 18.3224 76H59.7732C63.6565 76 67.1872 72.8226 67.1872 68.586V16.2341C67.1872 15.8741 67.1549 15.5148 67.0903 15.1609C66.439 11.5756 63.2905 8.88738 59.7059 8.88738H56.2129L56.0742 6.9326C55.9948 5.26784 55.2176 3.46177 53.8557 2.09914C52.3208 0.564251 50.0538 -0.1571 48.0633 0.0286206C48.1024 0.0252561 6.86754 2.91335 6.86754 2.91335C6.82582 2.91605 6.78477 2.91941 6.74372 2.92345C2.82137 3.28009 -0.30292 6.55174 0.0234384 10.822L3.65577 63.0137C3.65846 63.056 3.66183 63.0984 3.66586 63.1402C4.01779 67.0147 7.15554 69.8625 11.0261 69.8766Z" fill="#171516"/>
<path d="M59.7062 14.8889H50.622L50.0836 7.28513C50.0836 6.94868 49.8818 6.61223 49.6126 6.34307C49.3435 6.07391 48.9397 5.93933 48.6033 6.00662L7.28702 8.9001C6.54683 8.96739 5.94121 9.573 6.0085 10.3805L9.64218 62.5977C9.70947 63.3379 10.3151 63.8762 11.0553 63.8762H11.1226L16.9095 63.4725V68.5866C16.9095 69.3268 17.5151 69.9997 18.3226 69.9997H59.7734C60.5136 69.9997 61.1865 69.394 61.1865 68.5866V16.2347C61.052 15.4945 60.4464 14.8889 59.7062 14.8889ZM16.9095 16.2347V60.6463L12.3338 60.9828L8.90199 11.5244L47.4593 8.83281L47.8631 14.8216H18.2553C17.5151 14.8889 16.9095 15.4945 16.9095 16.2347ZM58.3604 67.1735H19.6684V17.6478H58.3604V67.1735Z" fill="#9052BC"/>
<path d="M26.1284 27.4731H36.8276C37.5677 27.4731 38.2406 26.8675 38.2406 26.06C38.2406 25.3198 37.635 24.6469 36.8276 24.6469H26.1284C25.3882 24.6469 24.7153 25.2525 24.7153 26.06C24.7153 26.8675 25.3209 27.4731 26.1284 27.4731Z" fill="#9052BC"/>
<path d="M26.1284 33.9984H51.9006C52.6408 33.9984 53.3137 33.3928 53.3137 32.5853C53.3137 31.8451 52.7081 31.1722 51.9006 31.1722H26.1284C25.3882 31.1722 24.7153 31.7778 24.7153 32.5853C24.7153 33.3928 25.3209 33.9984 26.1284 33.9984Z" fill="#9052BC"/>
<path d="M26.1284 40.5261H51.9006C52.6408 40.5261 53.3137 39.9204 53.3137 39.113C53.3137 38.3728 52.7081 37.6999 51.9006 37.6999H26.1284C25.3882 37.6999 24.7153 38.3055 24.7153 39.113C24.7153 39.9204 25.3209 40.5261 26.1284 40.5261Z" fill="#9052BC"/>
<path d="M26.1284 47.0537H51.9006C52.6408 47.0537 53.3137 46.4481 53.3137 45.6406C53.3137 44.9004 52.7081 44.2275 51.9006 44.2275H26.1284C25.3882 44.2275 24.7153 44.8331 24.7153 45.6406C24.7153 46.4481 25.3209 47.0537 26.1284 47.0537Z" fill="#9052BC"/>
<path d="M26.1284 53.5813H51.9006C52.6408 53.5813 53.3137 52.9757 53.3137 52.1683C53.3137 51.4281 52.7081 50.7552 51.9006 50.7552H26.1284C25.3882 50.7552 24.7153 51.3608 24.7153 52.1683C24.7153 52.9084 25.3209 53.5813 26.1284 53.5813Z" fill="#9052BC"/>
<path d="M51.8327 57.2828H44.9018C44.1616 57.2828 43.4887 57.8884 43.4887 58.6959C43.4887 59.5034 44.0943 60.109 44.9018 60.109H51.8327C52.5729 60.109 53.2458 59.5034 53.2458 58.6959C53.2458 57.8884 52.6402 57.2828 51.8327 57.2828Z" fill="#9052BC"/>
</svg>
